<?xml version="1.0" standalone="no"?>
<!DOCTYPE svg PUBLIC "-//W3C//DTD SVG 20010904//EN"
 "http://www.w3.org/TR/2001/REC-SVG-20010904/DTD/svg10.dtd">
<svg version="1.0" xmlns="http://www.w3.org/2000/svg"
 width="500.000000pt" height="500.000000pt" viewBox="0 0 500.000000 500.000000"
 preserveAspectRatio="xMidYMid meet">
<metadata>
Created by potrace 1.14, written by Peter Selinger 2001-2017
</metadata>
<g transform="translate(0.000000,500.000000) scale(0.100000,-0.100000)"
fill="#000000" stroke="none">
<path d="M0 2500 l0 -2500 2500 0 2500 0 0 2500 0 2500 -2500 0 -2500 0 0
-2500z m4140 1180 c82 -13 323 -70 332 -79 6 -6 -58 -461 -67 -469 -2 -3 -35
11 -72 31 -102 53 -199 77 -338 84 -136 6 -235 -12 -342 -64 -72 -35 -177
-133 -221 -206 -103 -171 -127 -439 -61 -678 107 -385 458 -540 895 -394 43
14 103 40 132 56 l52 29 0 -229 0 -229 -78 -30 c-275 -105 -622 -115 -907 -25
-386 122 -636 428 -695 855 -17 116 -14 365 4 470 85 477 404 792 883 873 95
16 394 19 483 5z m-2277 -53 c133 -35 234 -86 306 -153 132 -122 193 -263 210
-489 23 -303 -46 -534 -209 -695 -87 -86 -159 -132 -270 -171 -138 -49 -210
-60 -442 -66 l-218 -6 0 -318 0 -319 -280 0 -280 0 0 1115 0 1115 188 1 c103
1 230 5 282 9 52 4 212 7 355 5 244 -2 266 -4 358 -28z"/>
<path d="M1278 3263 l-38 -4 0 -394 0 -394 34 -7 c19 -3 97 -4 173 -2 123 3
144 6 193 29 110 51 172 150 191 301 26 212 -41 377 -179 445 -53 26 -66 28
-197 29 -77 1 -157 0 -177 -3z"/>
</g>
</svg>
